<?xml version="1.0" encoding="UTF-8" standalone="no"?><svg xmlns="http://www.w3.org/2000/svg" xmlns:xlink="http://www.w3.org/1999/xlink" contentStyleType="text/css" height="364px" preserveAspectRatio="none" style="width:678px;height:364px;background:#FFFFFF;" version="1.1" viewBox="0 0 678 364" width="678px" zoomAndPan="magnify"><defs/><g><!--MD5=[ea788d960087c20ec7b158cabdb37d16]
cluster Todo\\Shared\\Foundation\\ValueObject--><g id="cluster_Todo\\Shared\\Foundation\\ValueObject"><path d="M8.5,140 L303.5,140 A3.75,3.75 0 0 1 306,142.5 L313,162.2969 L313.5,162.2969 A2.5,2.5 0 0 1 316,164.7969 L316,287.5 A2.5,2.5 0 0 1 313.5,290 L8.5,290 A2.5,2.5 0 0 1 6,287.5 L6,142.5 A2.5,2.5 0 0 1 8.5,140 " style="stroke:#000000;stroke-width:1.5;fill:none;"/><line style="stroke:#000000;stroke-width:1.5;fill:none;" x1="6" x2="313" y1="162.2969" y2="162.2969"/><text fill="#000000" font-family="sans-serif" font-size="14" font-weight="bold" lengthAdjust="spacing" textLength="294" x="10" y="154.9951">Todo\Shared\Foundation\ValueObject</text></g><!--MD5=[606a0da6e44edf257ea86d9fe97a953b]
cluster Todo\\Task\\Command\\CreateTask--><g id="cluster_Todo\\Task\\Command\\CreateTask"><path d="M25.5,20 L286.5,20 A3.75,3.75 0 0 1 289,22.5 L296,42.2969 L296.5,42.2969 A2.5,2.5 0 0 1 299,44.7969 L299,100.5 A2.5,2.5 0 0 1 296.5,103 L25.5,103 A2.5,2.5 0 0 1 23,100.5 L23,22.5 A2.5,2.5 0 0 1 25.5,20 " style="stroke:#000000;stroke-width:1.5;fill:none;"/><line style="stroke:#000000;stroke-width:1.5;fill:none;" x1="23" x2="296" y1="42.2969" y2="42.2969"/><text fill="#000000" font-family="sans-serif" font-size="14" font-weight="bold" lengthAdjust="spacing" textLength="260" x="27" y="34.9951">Todo\Task\Command\CreateTask</text></g><!--MD5=[8d27bbdb8f3d797c7760af530b902ff2]
cluster Todo\\Task\\ValueObject--><g id="cluster_Todo\\Task\\ValueObject"><path d="M346.5,6 L529.5,6 A3.75,3.75 0 0 1 532,8.5 L539,28.2969 L668.5,28.2969 A2.5,2.5 0 0 1 671,30.7969 L671,354.5 A2.5,2.5 0 0 1 668.5,357 L346.5,357 A2.5,2.5 0 0 1 344,354.5 L344,8.5 A2.5,2.5 0 0 1 346.5,6 " style="stroke:#000000;stroke-width:1.5;fill:none;"/><line style="stroke:#000000;stroke-width:1.5;fill:none;" x1="344" x2="539" y1="28.2969" y2="28.2969"/><text fill="#000000" font-family="sans-serif" font-size="14" font-weight="bold" lengthAdjust="spacing" textLength="182" x="348" y="20.9951">Todo\Task\ValueObject</text></g><!--MD5=[9cb77c94b50815473c5a1f26e1db46cd]
class Todo\\Shared\\Foundation\\ValueObject\\Identifier--><g id="elem_Todo\\Shared\\Foundation\\ValueObject\\Identifier"><rect codeLine="15" fill="#F1F1F1" height="32" id="Todo\\Shared\\Foundation\\ValueObject\\Identifier" rx="2.5" ry="2.5" style="stroke:#181818;stroke-width:0.5;" width="92" x="114.5" y="175"/><ellipse cx="129.5" cy="191" fill="#A9DCDF" rx="11" ry="11" style="stroke:#181818;stroke-width:1.0;"/><path d="M129.6094,186.3438 L128.4531,191.4219 L130.7813,191.4219 L129.6094,186.3438 Z M128.125,184.1094 L131.1094,184.1094 L134.4688,196.5 L132.0156,196.5 L131.25,193.4375 L127.9688,193.4375 L127.2188,196.5 L124.7813,196.5 L128.125,184.1094 Z " fill="#000000"/><text fill="#000000" font-family="sans-serif" font-size="14" font-style="italic" lengthAdjust="spacing" textLength="60" x="143.5" y="195.8467">Identifier</text></g><!--MD5=[d5213bb986a24fa62d71ad46c5c9faf4]
class Todo\\Shared\\Foundation\\ValueObject\\StringValue--><g id="elem_Todo\\Shared\\Foundation\\ValueObject\\StringValue"><rect codeLine="18" fill="#F1F1F1" height="32" id="Todo\\Shared\\Foundation\\ValueObject\\StringValue" rx="2.5" ry="2.5" style="stroke:#181818;stroke-width:0.5;" width="111" x="105" y="242"/><ellipse cx="120" cy="258" fill="#A9DCDF" rx="11" ry="11" style="stroke:#181818;stroke-width:1.0;"/><path d="M120.1094,253.3438 L118.9531,258.4219 L121.2813,258.4219 L120.1094,253.3438 Z M118.625,251.1094 L121.6094,251.1094 L124.9688,263.5 L122.5156,263.5 L121.75,260.4375 L118.4688,260.4375 L117.7188,263.5 L115.2813,263.5 L118.625,251.1094 Z " fill="#000000"/><text fill="#000000" font-family="sans-serif" font-size="14" font-style="italic" lengthAdjust="spacing" textLength="79" x="134" y="262.8467">StringValue</text></g><!--MD5=[61c2d08af98f11fbae7e8be35e81aefc]
class Todo\\Task\\Command\\CreateTask\\CreateTaskCardInputPort--><g id="elem_Todo\\Task\\Command\\CreateTask\\CreateTaskCardInputPort"><rect codeLine="21" fill="#F1F1F1" height="32" id="Todo\\Task\\Command\\CreateTask\\CreateTaskCardInputPort" rx="2.5" ry="2.5" style="stroke:#181818;stroke-width:0.5;" width="205" x="58" y="55"/><ellipse cx="73" cy="71" fill="#B4A7E5" rx="11" ry="11" style="stroke:#181818;stroke-width:1.0;"/><path d="M68.9219,66.7656 L68.9219,64.6094 L76.3125,64.6094 L76.3125,66.7656 L73.8438,66.7656 L73.8438,74.8438 L76.3125,74.8438 L76.3125,77 L68.9219,77 L68.9219,74.8438 L71.3906,74.8438 L71.3906,66.7656 L68.9219,66.7656 Z " fill="#000000"/><text fill="#000000" font-family="sans-serif" font-size="14" font-style="italic" lengthAdjust="spacing" textLength="173" x="87" y="75.8467">CreateTaskCardInputPort</text></g><!--MD5=[4ac21e540c6fc938b2c9da3177b5ab26]
class Todo\\Task\\ValueObject\\TaskCost--><g id="elem_Todo\\Task\\ValueObject\\TaskCost"><rect codeLine="24" fill="#F1F1F1" height="32" id="Todo\\Task\\ValueObject\\TaskCost" rx="2.5" ry="2.5" style="stroke:#181818;stroke-width:0.5;" width="97" x="374.5" y="108"/><ellipse cx="389.5" cy="124" fill="#ADD1B2" rx="11" ry="11" style="stroke:#181818;stroke-width:1.0;"/><path d="M392.4688,129.6406 Q391.8906,129.9375 391.25,130.0781 Q390.6094,130.2344 389.9063,130.2344 Q387.4063,130.2344 386.0781,128.5938 Q384.7656,126.9375 384.7656,123.8125 Q384.7656,120.6875 386.0781,119.0313 Q387.4063,117.375 389.9063,117.375 Q390.6094,117.375 391.25,117.5313 Q391.9063,117.6875 392.4688,117.9844 L392.4688,120.7031 Q391.8438,120.125 391.25,119.8594 Q390.6563,119.5781 390.0313,119.5781 Q388.6875,119.5781 388,120.6563 Q387.3125,121.7188 387.3125,123.8125 Q387.3125,125.9063 388,126.9844 Q388.6875,128.0469 390.0313,128.0469 Q390.6563,128.0469 391.25,127.7813 Q391.8438,127.5 392.4688,126.9219 L392.4688,129.6406 Z " fill="#000000"/><text fill="#000000" font-family="sans-serif" font-size="14" lengthAdjust="spacing" textLength="65" x="403.5" y="128.8467">TaskCost</text></g><!--MD5=[95f7b8a93f371dff74cf150e7777fbe7]
class Todo\\Task\\ValueObject\\TaskDeadline--><g id="elem_Todo\\Task\\ValueObject\\TaskDeadline"><rect codeLine="27" fill="#F1F1F1" height="32" id="Todo\\Task\\ValueObject\\TaskDeadline" rx="2.5" ry="2.5" style="stroke:#181818;stroke-width:0.5;" width="126" x="360" y="41"/><ellipse cx="375" cy="57" fill="#ADD1B2" rx="11" ry="11" style="stroke:#181818;stroke-width:1.0;"/><path d="M377.9688,62.6406 Q377.3906,62.9375 376.75,63.0781 Q376.1094,63.2344 375.4063,63.2344 Q372.9063,63.2344 371.5781,61.5938 Q370.2656,59.9375 370.2656,56.8125 Q370.2656,53.6875 371.5781,52.0313 Q372.9063,50.375 375.4063,50.375 Q376.1094,50.375 376.75,50.5313 Q377.4063,50.6875 377.9688,50.9844 L377.9688,53.7031 Q377.3438,53.125 376.75,52.8594 Q376.1563,52.5781 375.5313,52.5781 Q374.1875,52.5781 373.5,53.6563 Q372.8125,54.7188 372.8125,56.8125 Q372.8125,58.9063 373.5,59.9844 Q374.1875,61.0469 375.5313,61.0469 Q376.1563,61.0469 376.75,60.7813 Q377.3438,60.5 377.9688,59.9219 L377.9688,62.6406 Z " fill="#000000"/><text fill="#000000" font-family="sans-serif" font-size="14" lengthAdjust="spacing" textLength="94" x="389" y="61.8467">TaskDeadline</text></g><!--MD5=[0c653a95d971e04920e4cc27b5da6e66]
class Todo\\Task\\ValueObject\\TaskDetail--><g id="elem_Todo\\Task\\ValueObject\\TaskDetail"><rect codeLine="30" fill="#F1F1F1" height="32" id="Todo\\Task\\ValueObject\\TaskDetail" rx="2.5" ry="2.5" style="stroke:#181818;stroke-width:0.5;" width="104" x="371" y="242"/><ellipse cx="386" cy="258" fill="#ADD1B2" rx="11" ry="11" style="stroke:#181818;stroke-width:1.0;"/><path d="M388.9688,263.6406 Q388.3906,263.9375 387.75,264.0781 Q387.1094,264.2344 386.4063,264.2344 Q383.9063,264.2344 382.5781,262.5938 Q381.2656,260.9375 381.2656,257.8125 Q381.2656,254.6875 382.5781,253.0313 Q383.9063,251.375 386.4063,251.375 Q387.1094,251.375 387.75,251.5313 Q388.4063,251.6875 388.9688,251.9844 L388.9688,254.7031 Q388.3438,254.125 387.75,253.8594 Q387.1563,253.5781 386.5313,253.5781 Q385.1875,253.5781 384.5,254.6563 Q383.8125,255.7188 383.8125,257.8125 Q383.8125,259.9063 384.5,260.9844 Q385.1875,262.0469 386.5313,262.0469 Q387.1563,262.0469 387.75,261.7813 Q388.3438,261.5 388.9688,260.9219 L388.9688,263.6406 Z " fill="#000000"/><text fill="#000000" font-family="sans-serif" font-size="14" lengthAdjust="spacing" textLength="72" x="400" y="262.8467">TaskDetail</text></g><!--MD5=[2ae67b51aabfe7efb70abc6e732c5560]
class Todo\\Task\\ValueObject\\TaskId--><g id="elem_Todo\\Task\\ValueObject\\TaskId"><rect codeLine="33" fill="#F1F1F1" height="32" id="Todo\\Task\\ValueObject\\TaskId" rx="2.5" ry="2.5" style="stroke:#181818;stroke-width:0.5;" width="77" x="384.5" y="175"/><ellipse cx="399.5" cy="191" fill="#ADD1B2" rx="11" ry="11" style="stroke:#181818;stroke-width:1.0;"/><path d="M402.4688,196.6406 Q401.8906,196.9375 401.25,197.0781 Q400.6094,197.2344 399.9063,197.2344 Q397.4063,197.2344 396.0781,195.5938 Q394.7656,193.9375 394.7656,190.8125 Q394.7656,187.6875 396.0781,186.0313 Q397.4063,184.375 399.9063,184.375 Q400.6094,184.375 401.25,184.5313 Q401.9063,184.6875 402.4688,184.9844 L402.4688,187.7031 Q401.8438,187.125 401.25,186.8594 Q400.6563,186.5781 400.0313,186.5781 Q398.6875,186.5781 398,187.6563 Q397.3125,188.7188 397.3125,190.8125 Q397.3125,192.9063 398,193.9844 Q398.6875,195.0469 400.0313,195.0469 Q400.6563,195.0469 401.25,194.7813 Q401.8438,194.5 402.4688,193.9219 L402.4688,196.6406 Z " fill="#000000"/><text fill="#000000" font-family="sans-serif" font-size="14" lengthAdjust="spacing" textLength="45" x="413.5" y="195.8467">TaskId</text></g><!--MD5=[725186a61b97f43bc50be21b0a13a12c]
class Todo\\Task\\ValueObject\\TaskLabel--><g id="elem_Todo\\Task\\ValueObject\\TaskLabel"><rect codeLine="36" fill="#F1F1F1" height="32" id="Todo\\Task\\ValueObject\\TaskLabel" rx="2.5" ry="2.5" style="stroke:#181818;stroke-width:0.5;" width="101" x="550" y="108"/><ellipse cx="565" cy="124" fill="#ADD1B2" rx="11" ry="11" style="stroke:#181818;stroke-width:1.0;"/><path d="M567.9688,129.6406 Q567.3906,129.9375 566.75,130.0781 Q566.1094,130.2344 565.4063,130.2344 Q562.9063,130.2344 561.5781,128.5938 Q560.2656,126.9375 560.2656,123.8125 Q560.2656,120.6875 561.5781,119.0313 Q562.9063,117.375 565.4063,117.375 Q566.1094,117.375 566.75,117.5313 Q567.4063,117.6875 567.9688,117.9844 L567.9688,120.7031 Q567.3438,120.125 566.75,119.8594 Q566.1563,119.5781 565.5313,119.5781 Q564.1875,119.5781 563.5,120.6563 Q562.8125,121.7188 562.8125,123.8125 Q562.8125,125.9063 563.5,126.9844 Q564.1875,128.0469 565.5313,128.0469 Q566.1563,128.0469 566.75,127.7813 Q567.3438,127.5 567.9688,126.9219 L567.9688,129.6406 Z " fill="#000000"/><text fill="#000000" font-family="sans-serif" font-size="14" lengthAdjust="spacing" textLength="69" x="579" y="128.8467">TaskLabel</text></g><!--MD5=[3d7c6ad87ab3edfe0a2b4d79ed25a969]
class Todo\\Task\\ValueObject\\TaskName--><g id="elem_Todo\\Task\\ValueObject\\TaskName"><rect codeLine="39" fill="#F1F1F1" height="32" id="Todo\\Task\\ValueObject\\TaskName" rx="2.5" ry="2.5" style="stroke:#181818;stroke-width:0.5;" width="105" x="370.5" y="309"/><ellipse cx="385.5" cy="325" fill="#ADD1B2" rx="11" ry="11" style="stroke:#181818;stroke-width:1.0;"/><path d="M388.4688,330.6406 Q387.8906,330.9375 387.25,331.0781 Q386.6094,331.2344 385.9063,331.2344 Q383.4063,331.2344 382.0781,329.5938 Q380.7656,327.9375 380.7656,324.8125 Q380.7656,321.6875 382.0781,320.0313 Q383.4063,318.375 385.9063,318.375 Q386.6094,318.375 387.25,318.5313 Q387.9063,318.6875 388.4688,318.9844 L388.4688,321.7031 Q387.8438,321.125 387.25,320.8594 Q386.6563,320.5781 386.0313,320.5781 Q384.6875,320.5781 384,321.6563 Q383.3125,322.7188 383.3125,324.8125 Q383.3125,326.9063 384,327.9844 Q384.6875,329.0469 386.0313,329.0469 Q386.6563,329.0469 387.25,328.7813 Q387.8438,328.5 388.4688,327.9219 L388.4688,330.6406 Z " fill="#000000"/><text fill="#000000" font-family="sans-serif" font-size="14" lengthAdjust="spacing" textLength="73" x="399.5" y="329.8467">TaskName</text></g><!--MD5=[6d70592dfe6ed0d22a7b079cfe740b9f]
class Todo\\Task\\ValueObject\\TaskTodos--><g id="elem_Todo\\Task\\ValueObject\\TaskTodos"><rect codeLine="42" fill="#F1F1F1" height="32" id="Todo\\Task\\ValueObject\\TaskTodos" rx="2.5" ry="2.5" style="stroke:#181818;stroke-width:0.5;" width="109" x="546" y="41"/><ellipse cx="561" cy="57" fill="#ADD1B2" rx="11" ry="11" style="stroke:#181818;stroke-width:1.0;"/><path d="M563.9688,62.6406 Q563.3906,62.9375 562.75,63.0781 Q562.1094,63.2344 561.4063,63.2344 Q558.9063,63.2344 557.5781,61.5938 Q556.2656,59.9375 556.2656,56.8125 Q556.2656,53.6875 557.5781,52.0313 Q558.9063,50.375 561.4063,50.375 Q562.1094,50.375 562.75,50.5313 Q563.4063,50.6875 563.9688,50.9844 L563.9688,53.7031 Q563.3438,53.125 562.75,52.8594 Q562.1563,52.5781 561.5313,52.5781 Q560.1875,52.5781 559.5,53.6563 Q558.8125,54.7188 558.8125,56.8125 Q558.8125,58.9063 559.5,59.9844 Q560.1875,61.0469 561.5313,61.0469 Q562.1563,61.0469 562.75,60.7813 Q563.3438,60.5 563.9688,59.9219 L563.9688,62.6406 Z " fill="#000000"/><text fill="#000000" font-family="sans-serif" font-size="14" lengthAdjust="spacing" textLength="77" x="575" y="61.8467">TaskTodos</text></g><!--MD5=[6089aee86e1b613932133ac6f977b0c6]
reverse link Todo\\Shared\\Foundation\\ValueObject\\StringValue to Todo\\Task\\ValueObject\\TaskDetail--><g id="link_Todo\\Shared\\Foundation\\ValueObject\\StringValue_Todo\\Task\\ValueObject\\TaskDetail"><path d="M236.17,258 C236.17,258 370.98,258 370.98,258 " fill="none" id="Todo\\Shared\\Foundation\\ValueObject\\StringValue-backto-Todo\\Task\\ValueObject\\TaskDetail" style="stroke:#516F42;stroke-width:1.0;"/><polygon fill="none" points="236.17,265,216.17,258,236.17,251,236.17,265" style="stroke:#516F42;stroke-width:1.0;"/></g><!--MD5=[999c0b61d4143619cb8259d97529cccc]
reverse link Todo\\Shared\\Foundation\\ValueObject\\Identifier to Todo\\Task\\ValueObject\\TaskId--><g id="link_Todo\\Shared\\Foundation\\ValueObject\\Identifier_Todo\\Task\\ValueObject\\TaskId"><path d="M226.52,191 C226.52,191 384.3,191 384.3,191 " fill="none" id="Todo\\Shared\\Foundation\\ValueObject\\Identifier-backto-Todo\\Task\\ValueObject\\TaskId" style="stroke:#516F42;stroke-width:1.0;"/><polygon fill="none" points="226.52,198,206.52,191,226.52,184,226.52,198" style="stroke:#516F42;stroke-width:1.0;"/></g><!--MD5=[359914ba5e5d89ff622195d5022209a2]
reverse link Todo\\Shared\\Foundation\\ValueObject\\StringValue to Todo\\Task\\ValueObject\\TaskName--><g id="link_Todo\\Shared\\Foundation\\ValueObject\\StringValue_Todo\\Task\\ValueObject\\TaskName"><path d="M161,294.22 C161,294.22 161,325 161,325 C161,325 293.79,325 370.3,325 " fill="none" id="Todo\\Shared\\Foundation\\ValueObject\\StringValue-backto-Todo\\Task\\ValueObject\\TaskName" style="stroke:#516F42;stroke-width:1.0;"/><polygon fill="none" points="154,294.22,161,274.22,168,294.22,154,294.22" style="stroke:#516F42;stroke-width:1.0;"/></g><!--MD5=[7e674bafa3841e83dec15fd91134a0e5]
link Todo\\Task\\ValueObject\\TaskCost to Todo\\Task\\ValueObject\\TaskDeadline--></g></svg>